ply
format ascii 1.0
comment Created by Blender 3.2.1 - www.blender.org
element vertex 16
property float x
property float y
property float z
property float nx
property float ny
property float nz
property float s
property float t
property uchar red
property uchar green
property uchar blue
property uchar alpha
element face 12
property list uchar uint vertex_indices
end_header
-1.000000 1.000000 0.000000 -0.577350 0.577350 -0.577350 0.999900 0.999900 255 255 255 255
1.000000 -1.000000 0.000000 0.577350 -0.577350 -0.577350 0.000100 0.000100 255 255 255 255
-1.000000 -1.000000 0.000000 -0.577350 -0.577350 -0.577350 0.999900 0.000100 255 255 255 255
1.000000 -1.000000 1.452605 0.577350 -0.577350 0.577350 0.999900 0.999900 255 255 255 255
-1.000000 1.000000 1.452605 -0.577350 0.577350 0.577350 0.000100 0.000100 255 255 255 255
-1.000000 -1.000000 1.452605 -0.577350 -0.577350 0.577350 0.999900 0.000100 255 255 255 255
-1.000000 -1.000000 0.000000 -0.577350 -0.577350 -0.577350 0.000085 0.726264 255 255 255 255
-1.000000 1.000000 1.452605 -0.577350 0.577350 0.577350 0.999915 0.000085 255 255 255 255
-1.000000 1.000000 0.000000 -0.577350 0.577350 -0.577350 0.999915 0.726264 255 255 255 255
1.000000 -1.000000 0.000000 0.577350 -0.577350 -0.577350 0.000085 0.726264 255 255 255 255
-1.000000 -1.000000 1.452605 -0.577350 -0.577350 0.577350 0.999915 0.000085 255 255 255 255
-1.000000 -1.000000 0.000000 -0.577350 -0.577350 -0.577350 0.999915 0.726264 255 255 255 255
1.000000 1.000000 0.000000 0.577350 0.577350 -0.577350 0.000100 0.999900 255 255 255 255
1.000000 1.000000 1.452605 0.577350 0.577350 0.577350 0.000100 0.999900 255 255 255 255
-1.000000 -1.000000 1.452605 -0.577350 -0.577350 0.577350 0.000085 0.000085 255 255 255 255
1.000000 -1.000000 1.452605 0.577350 -0.577350 0.577350 0.000085 0.000085 255 255 255 255
3 0 1 2
3 3 4 5
3 6 7 8
3 6 7 8
3 9 10 11
3 9 10 11
3 0 12 1
3 3 13 4
3 6 14 7
3 6 14 7
3 9 15 10
3 9 15 10
