ply
format ascii 1.0
comment Created by Blender 3.3.0 - www.blender.org
element vertex 14
property float x
property float y
property float z
property float nx
property float ny
property float nz
property float s
property float t
property uchar red
property uchar green
property uchar blue
property uchar alpha
element face 6
property list uchar uint vertex_indices
end_header
1.000000 1.000000 1.000000 0.577350 0.577350 0.577350 0.625000 0.500000 255 255 255 255
-1.000000 1.000000 1.000000 -0.577350 0.577350 0.577350 0.875000 0.500000 255 255 255 255
-1.000000 -1.000000 1.000000 -0.577350 -0.577350 0.577350 0.875000 0.750000 255 255 255 255
1.000000 -1.000000 1.000000 0.577350 -0.577350 0.577350 0.625000 0.750000 255 255 255 255
1.000000 -1.000000 -1.000000 0.577350 -0.577350 -0.577350 0.375000 0.750000 255 255 255 255
-1.000000 -1.000000 1.000000 -0.577350 -0.577350 0.577350 0.625000 1.000000 255 255 255 255
-1.000000 -1.000000 -1.000000 -0.577350 -0.577350 -0.577350 0.375000 1.000000 255 255 255 255
-1.000000 -1.000000 -1.000000 -0.577350 -0.577350 -0.577350 0.375000 0.000000 255 255 255 255
-1.000000 -1.000000 1.000000 -0.577350 -0.577350 0.577350 0.625000 0.000000 255 255 255 255
-1.000000 1.000000 1.000000 -0.577350 0.577350 0.577350 0.625000 0.250000 255 255 255 255
-1.000000 1.000000 -1.000000 -0.577350 0.577350 -0.577350 0.375000 0.250000 255 255 255 255
-1.000000 1.000000 -1.000000 -0.577350 0.577350 -0.577350 0.125000 0.500000 255 255 255 255
1.000000 1.000000 -1.000000 0.577350 0.577350 -0.577350 0.375000 0.500000 255 255 255 255
-1.000000 -1.000000 -1.000000 -0.577350 -0.577350 -0.577350 0.125000 0.750000 255 255 255 255
4 0 1 2 3
4 4 3 5 6
4 7 8 9 10
4 11 12 4 13
4 12 0 3 4
4 10 9 0 12
