ply
format ascii 1.0
comment Created by Blender 3.1.2 - www.blender.org
element vertex 6
property float x
property float y
property float z
property float nx
property float ny
property float nz
property float s
property float t
property uchar red
property uchar green
property uchar blue
property uchar alpha
element face 2
property list uchar uint vertex_indices
end_header
-0.475442 0.175285 -0.000000 0.000000 -0.000000 1.000000 0.897976 0.176043 255 1 1 255
-0.276246 -0.456341 0.000000 0.000000 0.000000 1.000000 0.897976 0.856932 4 5 231 255
0.238045 -0.439969 -0.000000 0.000000 0.000000 1.000000 0.388661 0.999905 0 1 255 255
0.464754 -0.097207 -0.000000 0.000000 -0.000000 1.000000 0.060391 0.733936 0 1 255 255
0.440196 0.175664 -0.000000 0.000000 -0.000000 1.000000 0.000095 0.458798 0 1 255 255
0.045740 0.519101 0.000000 0.000000 -0.000000 1.000000 0.280655 0.000095 255 1 1 255
4 0 1 2 3
4 0 3 4 5
